<?xml version="1.0" ?><svg id="Layer_1" style="enable-background:new 0 0 96 96;" fill="#bebcbc"  version="1.1" viewBox="0 0 96 96" xml:space="preserve" xmlns="http://www.w3.org/2000/svg" xmlns:xlink="http://www.w3.org/1999/xlink"><path d="M48,0c26.5,0,48,21.5,48,48S74.5,96,48,96S0,74.5,0,48S21.5,0,48,0L48,0z M48,4c-7.5,0-14.6,1.9-20.8,5.2  c4.1,2.1,8.2,4.8,11.5,7.2c7.4,5.5,13.7,12.3,18.1,20.2c5.8-3.9,10.9-8.9,15.2-14.7c1.6-2.1,3.3-4.6,4.8-7.3C69,8,59,4,48,4L48,4z   M79.7,17.5c-1.5,2.5-3.1,4.8-4.6,6.8C70.5,30.6,64.9,36,58.6,40.2c1.4,3,2.5,6.1,3.3,9.3c0.8,3.2,1.5,6.6,2.1,10.1  c4.2-1,8.6-1.5,13.1-1.5c4.2,0,8.8,0.4,13.5,1C91.5,55.6,92,51.9,92,48C92,36.2,87.3,25.4,79.7,17.5L79.7,17.5z M89.4,63  c-4.3-0.5-8.5-0.9-12.3-0.9c-4.3,0-8.4,0.5-12.5,1.5c1,7.7,1.4,16.1,1.5,24.5C76.8,83.3,85.3,74.2,89.4,63L89.4,63z M62.1,89.7  c0-8.5-0.4-17.1-1.4-25c-6.9,2.3-13.3,5.9-19.1,10.4c-4.2,3.3-9.2,8.1-12.5,12.5C34.8,90.5,41.2,92,48,92  C52.9,92,57.7,91.2,62.1,89.7L62.1,89.7z M25.5,85.8c3.5-4.9,9-10.1,13.6-13.8c6.4-5,13.4-8.9,21-11.3c-0.6-3.6-1.2-7-2.1-10.2  c-0.7-2.9-1.7-5.6-2.9-8.2c-4.1,2.3-8.4,4.1-13.1,5.3c-10.8,2.8-24.3,4-37.9,4.1C5.4,66.2,13.6,78.7,25.5,85.8L25.5,85.8z M4,47.7  c13.3-0.1,26.5-1.3,37.1-4c4.4-1.1,8.5-2.8,12.3-5c-4.1-7.5-10.1-13.8-17-19.1c-3.7-2.8-8.6-5.8-13.2-7.9C11.6,19.6,4.1,32.8,4,47.7  z"/></svg>