<svg viewBox="0 0 32 32" xmlns="http://www.w3.org/2000/svg"><g data-name="Layer 85"><path d="M22.75 23H9a7 7 0 0 1-7-7.18A7.2 7.2 0 0 1 9.28 9H23a7 7 0 0 1 7 7.21A7.19 7.19 0 0 1 22.75 23ZM9.28 11A5.18 5.18 0 0 0 4 15.87 5 5 0 0 0 9 21h13.75A5.17 5.17 0 0 0 28 16.15 5 5 0 0 0 23 11Z" fill="#ffffff" class="fill-000000"></path><circle cx="9" cy="16" r="4" fill="#ffffff" class="fill-000000"></circle><path d="M9 22h13.75a6.33 6.33 0 0 0 5.45-3.08l-.47-1.41c-.64 2-5.51 1.51-11.28 1.51S3.77 18.13 4 16l-1 .07A6 6 0 0 0 9 22Z" fill="#ffffff" class="fill-000000"></path></g></svg>