<?xml version="1.0" ?><svg height="20" version="1.1" viewBox="0 0 20 20"  fill="#bebcbc" width="20" xmlns="http://www.w3.org/2000/svg"><g id="layer1"><path d="M 9 0 L 9 1 L 4 1 A 0.50005 0.50005 0 0 0 3.7519531 1.0664062 L 0.25195312 3.0664062 A 0.50005 0.50005 0 0 0 0.25195312 3.9335938 L 3.7519531 5.9335938 A 0.50005 0.50005 0 0 0 4 6 L 9 6 L 9 7 L 3.5 7 A 0.50005 0.50005 0 0 0 3 7.5 L 3 11.5 A 0.50005 0.50005 0 0 0 3.5 12 L 9 12 L 9 20 L 10 20 L 10 12 L 15 12 A 0.50005 0.50005 0 0 0 15.248047 11.933594 L 18.748047 9.9335938 A 0.50005 0.50005 0 0 0 18.748047 9.0664062 L 15.248047 7.0664062 A 0.50005 0.50005 0 0 0 15 7 L 10 7 L 10 6 L 15.5 6 A 0.50005 0.50005 0 0 0 16 5.5 L 16 1.5 A 0.50005 0.50005 0 0 0 15.5 1 L 10 1 L 10 0 L 9 0 z M 4.1328125 2 L 15 2 L 15 5 L 4.1328125 5 L 1.5078125 3.5 L 4.1328125 2 z M 4 8 L 14.867188 8 L 17.492188 9.5 L 14.867188 11 L 4 11 L 4 8 z " style="stroke:none; stroke-width:0px;"/></g></svg>