<?xml version="1.0" ?><!DOCTYPE svg  PUBLIC '-//W3C//DTD SVG 1.1//EN'  'http://www.w3.org/Graphics/SVG/1.1/DTD/svg11.dtd'><svg height="48px" id="Layer_1" fill="#bebcbc" style="enable-background:new 0 0 48 48;" version="1.1" viewBox="0 0 48 48" width="48px" xml:space="preserve" xmlns="http://www.w3.org/2000/svg" xmlns:xlink="http://www.w3.org/1999/xlink"><path d="M29.713,29.411" style="fill:none;stroke:#231F20;stroke-miterlimit:10;"/><path d="M21.697,36.5" style="fill:none;stroke:#231F20;stroke-miterlimit:10;"/><path d="M18.697,29.441" style="fill:none;stroke:#231F20;stroke-miterlimit:10;"/><path d="M17.868,29.426" style="fill:none;stroke:#231F20;stroke-miterlimit:10;"/><g><path d="M24.476,35.046c0,0-0.055,0.036-0.123,0.079   c-0.067,0.044-0.867-0.427-1.776-1.045l-5.208-3.545c-0.909-0.618-2.553-1.125-3.653-1.125h-3.93c-1.1,0-2-0.9-2-2V13.208   c0-1.1,0.9-2,2-2h14.414" style="fill:none;stroke:#231F20;stroke-miterlimit:10;"/></g><g><path d="M24.562,11.208h14.414c1.101,0,2,0.9,2,2V27.41c0,1.1-0.899,2-2,2   h-3.931c-1.1,0-2.744,0.507-3.652,1.125l-5.209,3.545c-0.908,0.618-1.708,1.089-1.775,1.045c-0.068-0.043-0.123-0.079-0.123-0.079" style="fill:none;stroke:#231F20;stroke-miterlimit:10;"/></g><line style="fill:none;stroke:#231F20;stroke-miterlimit:10;" x1="14.696" x2="32.571" y1="11.216" y2="11.216"/><line style="fill:none;stroke:#231F20;stroke-miterlimit:10;" x1="12.404" x2="36.904" y1="16.372" y2="16.372"/><line style="fill:none;stroke:#231F20;stroke-miterlimit:10;" x1="12.357" x2="36.857" y1="19.126" y2="19.126"/><line style="fill:none;stroke:#231F20;stroke-miterlimit:10;" x1="12.357" x2="36.857" y1="21.688" y2="21.688"/><line style="fill:none;stroke:#231F20;stroke-miterlimit:10;" x1="12.357" x2="36.857" y1="24.251" y2="24.251"/></svg>