<?xml version="1.0" ?><!DOCTYPE svg  PUBLIC '-//W3C//DTD SVG 1.1//EN'  'http://www.w3.org/Graphics/SVG/1.1/DTD/svg11.dtd'><svg enable-background="new 0 0 128 128" height="128px" id="Layer_1" version="1.1" viewBox="0 0 128 128" width="128px" xml:space="preserve" xmlns="http://www.w3.org/2000/svg" xmlns:xlink="http://www.w3.org/1999/xlink"><path d="M105.051,61.44H23.025c-2.879,0-5.221-2.341-5.221-5.219V40.585c0-2.878,2.342-5.22,5.221-5.22h82.025  c2.878,0,5.219,2.342,5.219,5.22v15.637C110.27,59.099,107.929,61.44,105.051,61.44z M23.025,39.365  c-0.662,0-1.221,0.559-1.221,1.22v15.637c0,0.672,0.548,1.219,1.221,1.219h82.025c0.672,0,1.219-0.547,1.219-1.219V40.585  c0-0.662-0.559-1.22-1.219-1.22H23.025z"/><path d="M93.612,115.006H34.46c-5.542,0-10.051-4.508-10.051-10.051V59.44c0-1.104,0.896-2,2-2s2,0.896,2,2v45.515  c0,3.337,2.715,6.051,6.051,6.051h59.152c3.335,0,6.049-2.714,6.049-6.051V59.44c0-1.104,0.896-2,2-2s2,0.896,2,2v45.515  C103.661,110.498,99.153,115.006,93.612,115.006z"/><path d="M64.037,115.006c-1.104,0-2-0.895-2-2V59.44c0-1.104,0.896-2,2-2s2,0.896,2,2v53.565  C66.037,114.111,65.142,115.006,64.037,115.006z"/><g><path d="M39.075,39.358c-6.26-3.392-8.596-11.244-5.207-17.505c3.387-6.258,11.238-8.595,17.501-5.209   c9.541,5.168,14.693,19.586,14.907,20.197l-3.773,1.327c-0.048-0.136-4.861-13.577-13.037-18.006   c-4.325-2.338-9.743-0.724-12.08,3.595c-2.339,4.323-0.727,9.743,3.596,12.084L39.075,39.358z"/><path d="M88.995,39.358l-1.904-3.518c2.095-1.135,3.622-3.016,4.302-5.297c0.679-2.282,0.428-4.692-0.707-6.785   c-1.132-2.095-3.012-3.621-5.293-4.3c-2.282-0.679-4.69-0.429-6.784,0.704c-8.176,4.428-12.989,17.869-13.037,18.005l-3.773-1.327   c0.214-0.611,5.365-15.029,14.906-20.196c3.032-1.642,6.525-2.004,9.829-1.02c3.307,0.983,6.03,3.196,7.671,6.229   c1.643,3.032,2.006,6.523,1.022,9.83C94.242,34.989,92.029,37.714,88.995,39.358z"/></g><path d="M101.661,88.224H26.409c-1.104,0-2-0.896-2-2s0.896-2,2-2h75.252c1.104,0,2,0.896,2,2S102.766,88.224,101.661,88.224z"/></svg>