<?xml version="1.0" ?><!DOCTYPE svg  PUBLIC '-//W3C//DTD SVG 1.1//EN'  'http://www.w3.org/Graphics/SVG/1.1/DTD/svg11.dtd'><svg height="100%" fill="#bebcbc" style="fill-rule:evenodd;clip-rule:evenodd;stroke-linejoin:round;stroke-miterlimit:2;" version="1.1" viewBox="0 0 32 32" width="100%" xml:space="preserve" xmlns="http://www.w3.org/2000/svg" xmlns:serif="http://www.serif.com/" xmlns:xlink="http://www.w3.org/1999/xlink"><path d="M3,8l0,16c-0,1.326 0.527,2.598 1.464,3.536c0.938,0.937 2.21,1.464 3.536,1.464l16,0c1.326,0 2.598,-0.527 3.536,-1.464c0.937,-0.938 1.464,-2.21 1.464,-3.536l-0,-16c0,-1.326 -0.527,-2.598 -1.464,-3.536c-0.938,-0.937 -2.21,-1.464 -3.536,-1.464c-4.439,-0 -11.561,-0 -16,-0c-1.326,-0 -2.598,0.527 -3.536,1.464c-0.937,0.938 -1.464,2.21 -1.464,3.536Zm24,15l0,1c0,0.796 -0.316,1.559 -0.879,2.121c-0.562,0.563 -1.325,0.879 -2.121,0.879l-3,0l0,-4l6,0Zm-14,4l6,0l0,-4l-6,0c0,0 0,4 0,4Zm-2,0l-3,-0c-0.796,0 -1.559,-0.316 -2.121,-0.879c-0.563,-0.562 -0.879,-1.325 -0.879,-2.121l-0,-1l6,0l0,4Zm-6,-10c-0,0 -0,4 -0,4l6,-0l0,-4l-6,0Zm8,0l0,4l6,-0l0,-4l-6,0Zm14,4l0,-4l-6,0l0,4l6,-0Zm-22,-10l-0,4l6,0l0,-4l-6,0Zm10.74,0l-2.74,0l0,4l6,0l0,-4l-3.26,0Zm5.26,0l0,4l6,0l0,-4l-6,0Zm6,-2l-22,0l0,-1c-0,-0.796 0.316,-1.559 0.879,-2.121c0.562,-0.563 1.325,-0.879 2.121,-0.879l16,0c0.796,-0 1.559,0.316 2.121,0.879c0.563,0.562 0.879,1.325 0.879,2.121l0,1Z"/></svg>