<?xml version="1.0" ?><!DOCTYPE svg  PUBLIC '-//W3C//DTD SVG 1.1//EN'  'http://www.w3.org/Graphics/SVG/1.1/DTD/svg11.dtd'><svg enable-background="new 0 0 24 24" height="24px" id="Layer_1" fill="#bebcbc" version="1.1" viewBox="0 0 24 24" width="24px" xml:space="preserve" xmlns="http://www.w3.org/2000/svg" xmlns:xlink="http://www.w3.org/1999/xlink"><g><path d="M18,6h-5c0-1.7-1.3-3-3-3H6C5.4,3,5,2.6,5,2s0.4-1,1-1h13.5C19.8,1,20,0.8,20,0.5S19.8,0,19.5,0H6C4.9,0,4,0.9,4,2   s0.9,2,2,2h4c1.1,0,2,0.9,2,2H6c-3.3,0-6,2.7-6,6v8c0,2.2,1.8,4,4,4c1.1,0,2.1-0.4,2.8-1.2l4.6-4.7c0.2-0.1,0.3-0.2,0.5-0.2   s0.4,0.1,0.5,0.2l4.6,4.7c0.7,0.7,1.7,1.2,2.8,1.2c2.2,0,4-1.8,4-4v-8C24,8.7,21.3,6,18,6z M22,20c0,1.1-0.9,2-2,2   c-0.6,0-1.1-0.2-1.4-0.6l-4.5-4.5c0,0-0.9-0.9-2.1-0.9s-2.1,0.9-2.1,0.9l-4.5,4.5C5.1,21.8,4.6,22,4,22c-1.1,0-2-0.9-2-2v-8   c0-2.2,1.8-4,4-4h12c2.2,0,4,1.8,4,4V20z"/><circle cx="17" cy="15" r="1"/><circle cx="17" cy="11" r="1"/><circle cx="15" cy="13" r="1"/><circle cx="19" cy="13" r="1"/><path d="M9,12H8v-1c0-0.6-0.4-1-1-1s-1,0.4-1,1v1H5c-0.6,0-1,0.4-1,1s0.4,1,1,1h1v1c0,0.6,0.4,1,1,1s1-0.4,1-1v-1h1   c0.6,0,1-0.4,1-1S9.6,12,9,12z"/></g></svg>